<svg aria-hidden="true" focusable="false" data-prefix="fas" data-icon="arrow-up" class="svg-inline--fa fa-arrow-up fa-w-14" role="img" xmlns="http://www.w3.org/2000/svg" viewBox="0 0 448 512"><path d="M 34.9 289.5 L 12.7 267.3 C 3.3 257.9 3.3 242.7 12.7 233.4 L 207 39 C 216.4 29.6 231.6 29.6 240.9 39 L 435.2 233.3 C 444.6 242.7 444.6 257.9 435.2 267.2 L 413 289.4 C 403.5 298.9 388 298.7 378.7 289 L 264 168.6 L 264 456 C 264 469.3 253.3 480 240 480 L 208 480 C 194.7 480 184 469.3 184 456 L 184 168.6 L 69.2 289.1 C 59.9 298.9 44.4 299.1 34.9 289.5 Z" transform="matrix(0.707107, -0.707107, 0.707107, 0.707107, -115.408217, 233.329906)"></path></svg>



