<svg aria-hidden="true" focusable="false" data-prefix="fas" data-icon="arrow-down" class="svg-inline--fa fa-arrow-down fa-w-14" role="img" xmlns="http://www.w3.org/2000/svg" viewBox="0 0 448 512"><path fill="#fff" d="M 413.1 222.5 L 435.3 244.7 C 444.7 254.1 444.7 269.3 435.3 278.6 L 241 473 C 231.6 482.4 216.4 482.4 207.1 473 L 12.7 278.6 C 3.3 269.2 3.3 254 12.7 244.7 L 34.9 222.5 C 44.4 213 59.9 213.2 69.2 222.9 L 184 343.4 L 184 56 C 184 42.7 194.7 32 208 32 L 240 32 C 253.3 32 264 42.7 264 56 L 264 343.4 L 378.8 222.9 C 388.1 213.1 403.6 212.9 413.1 222.5 Z" transform="matrix(0.707107, 0.707107, -0.707107, 0.707107, 246.645207, -83.403931)"></path></svg>



